
      <root>
        <mxCell id="0" />
        <mxCell id="1" parent="0" />
        <mxCell id="PzfliSI68X5vIbCBZoqU-1" value="Download Dataset" style="ellipse;whiteSpace=wrap;html=1;" parent="1" vertex="1">
          <mxGeometry x="354" y="20" width="120" height="80" as="geometry" />
        </mxCell>
        <mxCell id="PzfliSI68X5vIbCBZoqU-4" value="" style="endArrow=none;html=1;rounded=0;" parent="1" edge="1">
          <mxGeometry width="50" height="50" relative="1" as="geometry">
            <mxPoint x="414" y="130" as="sourcePoint" />
            <mxPoint x="414" y="100" as="targetPoint" />
          </mxGeometry>
        </mxCell>
        <mxCell id="PzfliSI68X5vIbCBZoqU-5" value="" style="endArrow=none;html=1;rounded=0;" parent="1" edge="1">
          <mxGeometry width="50" height="50" relative="1" as="geometry">
            <mxPoint x="280" y="130" as="sourcePoint" />
            <mxPoint x="560" y="130" as="targetPoint" />
            <Array as="points">
              <mxPoint x="462" y="130" />
            </Array>
          </mxGeometry>
        </mxCell>
        <mxCell id="PzfliSI68X5vIbCBZoqU-7" value="" style="endArrow=none;html=1;rounded=0;" parent="1" edge="1">
          <mxGeometry width="50" height="50" relative="1" as="geometry">
            <mxPoint x="279" y="160" as="sourcePoint" />
            <mxPoint x="279" y="130" as="targetPoint" />
          </mxGeometry>
        </mxCell>
        <mxCell id="PzfliSI68X5vIbCBZoqU-8" value="" style="endArrow=none;html=1;rounded=0;" parent="1" edge="1">
          <mxGeometry width="50" height="50" relative="1" as="geometry">
            <mxPoint x="561" y="160" as="sourcePoint" />
            <mxPoint x="561" y="130" as="targetPoint" />
          </mxGeometry>
        </mxCell>
        <mxCell id="PzfliSI68X5vIbCBZoqU-9" value="CNN model to process image and identify the skin condition" style="rounded=1;whiteSpace=wrap;html=1;" parent="1" vertex="1">

        </mxCell>
        <mxCell id="PzfliSI68X5vIbCBZoqU-10" value="Tableau visualization for cancer incidents and deaths" style="rounded=1;whiteSpace=wrap;html=1;" parent="1" vertex="1">
          <mxGeometry x="500" y="260" width="120" height="60" as="geometry" />
        </mxCell>
        <mxCell id="PzfliSI68X5vIbCBZoqU-16" value="WHO&lt;br&gt;AIHW&lt;br&gt;GCO" style="shape=cylinder3;whiteSpace=wrap;html=1;boundedLbl=1;backgroundOutline=1;size=15;" parent="1" vertex="1">
          <mxGeometry x="525" y="160" width="70" height="80" as="geometry" />
        </mxCell>
        <mxCell id="PzfliSI68X5vIbCBZoqU-17" value="ISIC &lt;br&gt;Kaggle&amp;nbsp;" style="shape=cylinder3;whiteSpace=wrap;html=1;boundedLbl=1;backgroundOutline=1;size=15;" parent="1" vertex="1">
          <mxGeometry x="240" y="160" width="70" height="80" as="geometry" />
        </mxCell>
        <mxCell id="PzfliSI68X5vIbCBZoqU-18" value="" style="endArrow=none;html=1;rounded=0;" parent="1" edge="1">
          <mxGeometry width="50" height="50" relative="1" as="geometry">
            <mxPoint x="279" y="259" as="sourcePoint" />
            <mxPoint x="279" y="240" as="targetPoint" />
          </mxGeometry>
        </mxCell>
        <mxCell id="PzfliSI68X5vIbCBZoqU-19" value="" style="endArrow=none;html=1;rounded=0;" parent="1" edge="1">
          <mxGeometry width="50" height="50" relative="1" as="geometry">
            <mxPoint x="559" y="259" as="sourcePoint" />
            <mxPoint x="559" y="240" as="targetPoint" />
          </mxGeometry>
        </mxCell>
        <mxCell id="PzfliSI68X5vIbCBZoqU-20" value="" style="endArrow=classic;html=1;rounded=0;" parent="1" edge="1">
          <mxGeometry width="50" height="50" relative="1" as="geometry">
            <mxPoint x="559" y="322" as="sourcePoint" />
            <mxPoint x="559" y="340" as="targetPoint" />
          </mxGeometry>
        </mxCell>
        <mxCell id="PzfliSI68X5vIbCBZoqU-21" value="clean the data and use WHO data to present number of deaths and AIHW data to show no of incidents" style="rounded=1;whiteSpace=wrap;html=1;" parent="1" vertex="1">
          <mxGeometry x="410" y="340" width="300" height="30" as="geometry" />
        </mxCell>
        <mxCell id="PzfliSI68X5vIbCBZoqU-23" value="" style="endArrow=classic;html=1;rounded=0;" parent="1" source="PzfliSI68X5vIbCBZoqU-24" edge="1">
          <mxGeometry width="50" height="50" relative="1" as="geometry">
            <mxPoint x="560" y="370" as="sourcePoint" />
            <mxPoint x="560" y="388" as="targetPoint" />
          </mxGeometry>
        </mxCell>
        <mxCell id="PzfliSI68X5vIbCBZoqU-25" value="" style="endArrow=classic;html=1;rounded=0;" parent="1" target="PzfliSI68X5vIbCBZoqU-24" edge="1">
          <mxGeometry width="50" height="50" relative="1" as="geometry">
            <mxPoint x="560" y="370" as="sourcePoint" />
            <mxPoint x="560" y="388" as="targetPoint" />
          </mxGeometry>
        </mxCell>
        <mxCell id="PzfliSI68X5vIbCBZoqU-24" value="create dashboards and story" style="rounded=1;whiteSpace=wrap;html=1;" parent="1" vertex="1">
          <mxGeometry x="460" y="388" width="200" height="30" as="geometry" />
        </mxCell>
        <mxCell id="iR6t0PUMa4Aw_JOq-9St-1" value="" style="endArrow=classic;html=1;rounded=0;" edge="1" parent="1">
          <mxGeometry width="50" height="50" relative="1" as="geometry">
            <mxPoint x="274.5" y="278" as="sourcePoint" />
            <mxPoint x="274.5" y="320" as="targetPoint" />
          </mxGeometry>
        </mxCell>
        <mxCell id="iR6t0PUMa4Aw_JOq-9St-2" value="EDA and re-sampling" style="rounded=1;whiteSpace=wrap;html=1;" vertex="1" parent="1">
          <mxGeometry x="215" y="260" width="120" height="30" as="geometry" />
        </mxCell>
      </root>
    </mxGraphModel>
  </diagram>
</mxfile>
